<svg xmlns="http://www.w3.org/2000/svg" version="1.1" xmlns:xlink="http://www.w3.org/1999/xlink" xmlns:svgjs="http://svgjs.dev/svgjs" width="1440" height="560" preserveAspectRatio="none" viewBox="0 0 1440 560"><g mask="url(&quot;#SvgjsMask1035&quot;)" fill="none"><rect width="1440" height="560" x="0" y="0" fill="url(&quot;#SvgjsLinearGradient1036&quot;)"></rect><path d="M268.61 236.23 a160.93 160.93 0 1 0 321.86 0 a160.93 160.93 0 1 0 -321.86 0z" fill="rgba(28, 83, 142, 0.4)" class="triangle-float1"></path><path d="M719.92 81.18 a160.12 160.12 0 1 0 320.24 0 a160.12 160.12 0 1 0 -320.24 0z" fill="rgba(28, 83, 142, 0.4)" class="triangle-float2"></path><path d="M426.3 392.51 a146.69 146.69 0 1 0 293.38 0 a146.69 146.69 0 1 0 -293.38 0z" fill="rgba(28, 83, 142, 0.4)" class="triangle-float2"></path><path d="M1240.36 520.48 a150.89 150.89 0 1 0 301.78 0 a150.89 150.89 0 1 0 -301.78 0z" fill="rgba(28, 83, 142, 0.4)" class="triangle-float2"></path></g><defs><mask id="SvgjsMask1035"><rect width="1440" height="560" fill="#ffffff"></rect></mask><linearGradient x1="84.72%" y1="139.29%" x2="15.28%" y2="-39.29%" gradientUnits="userSpaceOnUse" id="SvgjsLinearGradient1036"><stop stop-color="#0e2a47" offset="0"></stop><stop stop-color="#00459e" offset="1"></stop></linearGradient><style>
                @keyframes float1 {
                    0%{transform: translate(0, 0)}
                    50%{transform: translate(-10px, 0)}
                    100%{transform: translate(0, 0)}
                }

                .triangle-float1 {
                    animation: float1 5s infinite;
                }

                @keyframes float2 {
                    0%{transform: translate(0, 0)}
                    50%{transform: translate(-5px, -5px)}
                    100%{transform: translate(0, 0)}
                }

                .triangle-float2 {
                    animation: float2 4s infinite;
                }

                @keyframes float3 {
                    0%{transform: translate(0, 0)}
                    50%{transform: translate(0, -10px)}
                    100%{transform: translate(0, 0)}
                }

                .triangle-float3 {
                    animation: float3 6s infinite;
                }
            </style></defs></svg>